<svg xmlns="http://www.w3.org/2000/svg" xml:space="preserve" width="277.866" height="303.526"
    viewBox="0 0 73.519 80.308">
    <path
        d="M116.311 256.521c-1.65-.31-3.423-1.172-17.991-8.748-17.86-9.289-18.317-9.625-16.403-12.059.477-.606 7.298-4.423 7.905-4.423.136 0 5.499 2.74 11.917 6.09 17.26 9.007 14.766 9.015 32.163-.107l11.856-6.216 3.467 1.815c5.012 2.625 6.039 4.031 4.326 5.926-.574.636-30.926 16.711-32.678 17.308-1.032.351-3.637.588-4.562.414z"
        style="fill:#868b85;fill-opacity:1" transform="translate(-81.066 -176.272)" />
    <path
        d="M115.65 235.611c-1.176-.259-2.719-1.026-17.595-8.756-17.775-9.236-18.27-9.608-16.073-12.08 1.14-1.282 7.623-4.463 8.394-4.117.367.165 5.668 2.899 11.78 6.076 16.826 8.747 14.402 8.77 31.657-.285 6.351-3.333 11.681-6.06 11.844-6.06.572 0 7.23 3.479 7.856 4.105 2.458 2.457 2.012 2.8-15.93 12.244-17.513 9.22-18.516 9.625-21.933 8.873z"
        style="fill:#998468;fill-opacity:1" transform="translate(-81.066 -176.272)" />
    <path
        d="M114.673 214.515c-2.178-.778-31.865-16.392-32.56-17.125-2.385-2.518-1.888-2.911 14.62-11.547 19.714-10.315 17.742-9.389 20.3-9.53 3.263-.181 3.356-.141 20.099 8.565 22.428 11.664 22.407 9.528.214 21.163-18.23 9.557-18.919 9.814-22.673 8.474z"
        style="fill:#63805e;fill-opacity:1" transform="translate(-81.066 -176.272)" />
</svg>