<svg width="512" height="512" viewBox="0 0 512 512" fill="none" xmlns="http://www.w3.org/2000/svg">
<path d="M248.349 460.908C239.797 459.321 230.607 454.909 155.095 416.129C62.5207 368.581 60.1519 366.862 70.0728 354.403C72.5453 351.301 107.901 331.762 111.047 331.762C111.752 331.762 139.551 345.788 172.817 362.936C262.282 409.04 249.355 409.081 339.53 362.388L400.984 330.57L418.954 339.86C444.933 353.297 450.257 360.494 441.378 370.194C438.402 373.449 281.077 455.733 271.996 458.789C266.647 460.585 253.144 461.799 248.349 460.908Z" fill="#868B85"/>
<path d="M244.923 353.875C238.828 352.549 230.83 348.623 153.722 309.056C61.5877 261.779 59.022 259.875 70.4098 247.221C76.3188 240.659 109.923 224.376 113.919 226.148C115.821 226.992 143.298 240.987 174.979 257.249C262.194 302.022 249.63 302.14 339.069 255.79C371.988 238.729 399.615 224.771 400.46 224.771C403.425 224.771 437.936 242.579 441.181 245.783C453.921 258.36 451.61 260.115 358.61 308.457C267.834 355.651 262.635 357.724 244.923 353.875Z" fill="#998468"/>
<path d="M239.86 245.891C228.57 241.908 74.6918 161.984 71.0894 158.232C58.727 145.343 61.3032 143.332 146.87 99.1265C249.055 46.3268 238.833 51.0668 252.092 50.345C269.006 49.4186 269.488 49.6233 356.273 94.1869C472.525 153.892 472.416 142.958 357.382 202.515C262.889 251.434 259.318 252.75 239.86 245.891Z" fill="#63805E"/>
<mask id="path-4-outside-1_25_81" maskUnits="userSpaceOnUse" x="111.5" y="201" width="286" height="118" fill="black">
<rect fill="white" x="111.5" y="201" width="286" height="118"/>
<path d="M173.86 298.408H172.796C171.884 300.536 170.769 302.613 169.452 304.64C168.236 306.565 166.665 308.288 164.74 309.808C162.916 311.328 160.687 312.544 158.052 313.456C155.417 314.368 152.377 314.824 148.932 314.824C137.887 314.824 129.577 310.112 124.004 300.688C118.431 291.264 115.644 277.939 115.644 260.712C115.644 242.675 118.836 228.893 125.22 219.368C131.604 209.843 141.383 205.08 154.556 205.08C159.724 205.08 164.233 205.789 168.084 207.208C172.036 208.627 175.38 210.552 178.116 212.984C180.852 215.315 183.132 218.101 184.956 221.344C186.78 224.485 188.249 227.829 189.364 231.376L174.012 236.544C173.201 234.213 172.289 232.035 171.276 230.008C170.263 227.88 168.996 226.005 167.476 224.384C166.057 222.763 164.284 221.496 162.156 220.584C160.129 219.672 157.647 219.216 154.708 219.216C147.311 219.216 141.94 222.104 138.596 227.88C135.353 233.555 133.732 241.256 133.732 250.984V267.856C133.732 272.72 134.087 277.179 134.796 281.232C135.505 285.285 136.671 288.781 138.292 291.72C140.015 294.557 142.193 296.787 144.828 298.408C147.564 300.029 150.857 300.84 154.708 300.84C160.889 300.84 165.601 299.016 168.844 295.368C172.188 291.619 173.86 286.856 173.86 281.08V271.504H153.34V258.736H189.364V313H173.86V298.408ZM223.353 313V206.904H289.777V221.192H240.377V252.048H287.953V266.336H240.377V298.712H289.777V313H223.353ZM325.133 313V206.904H393.381V221.192H342.157V252.048H388.669V266.336H342.157V313H325.133Z"/>
</mask>
<path d="M173.86 298.408H172.796C171.884 300.536 170.769 302.613 169.452 304.64C168.236 306.565 166.665 308.288 164.74 309.808C162.916 311.328 160.687 312.544 158.052 313.456C155.417 314.368 152.377 314.824 148.932 314.824C137.887 314.824 129.577 310.112 124.004 300.688C118.431 291.264 115.644 277.939 115.644 260.712C115.644 242.675 118.836 228.893 125.22 219.368C131.604 209.843 141.383 205.08 154.556 205.08C159.724 205.08 164.233 205.789 168.084 207.208C172.036 208.627 175.38 210.552 178.116 212.984C180.852 215.315 183.132 218.101 184.956 221.344C186.78 224.485 188.249 227.829 189.364 231.376L174.012 236.544C173.201 234.213 172.289 232.035 171.276 230.008C170.263 227.88 168.996 226.005 167.476 224.384C166.057 222.763 164.284 221.496 162.156 220.584C160.129 219.672 157.647 219.216 154.708 219.216C147.311 219.216 141.94 222.104 138.596 227.88C135.353 233.555 133.732 241.256 133.732 250.984V267.856C133.732 272.72 134.087 277.179 134.796 281.232C135.505 285.285 136.671 288.781 138.292 291.72C140.015 294.557 142.193 296.787 144.828 298.408C147.564 300.029 150.857 300.84 154.708 300.84C160.889 300.84 165.601 299.016 168.844 295.368C172.188 291.619 173.86 286.856 173.86 281.08V271.504H153.34V258.736H189.364V313H173.86V298.408ZM223.353 313V206.904H289.777V221.192H240.377V252.048H287.953V266.336H240.377V298.712H289.777V313H223.353ZM325.133 313V206.904H393.381V221.192H342.157V252.048H388.669V266.336H342.157V313H325.133Z" fill="white"/>
<path d="M173.86 298.408H177.86V294.408H173.86V298.408ZM172.796 298.408V294.408H170.158L169.119 296.832L172.796 298.408ZM169.452 304.64L166.098 302.46L166.084 302.482L166.07 302.504L169.452 304.64ZM164.74 309.808L162.261 306.668L162.22 306.701L162.179 306.735L164.74 309.808ZM158.052 313.456L156.744 309.676H156.744L158.052 313.456ZM124.004 300.688L120.561 302.724L124.004 300.688ZM125.22 219.368L121.897 217.141H121.897L125.22 219.368ZM168.084 207.208L166.701 210.961L166.717 210.967L166.733 210.973L168.084 207.208ZM178.116 212.984L175.459 215.974L175.49 216.002L175.522 216.029L178.116 212.984ZM184.956 221.344L181.47 223.305L181.483 223.329L181.497 223.353L184.956 221.344ZM189.364 231.376L190.64 235.167L194.355 233.916L193.18 230.177L189.364 231.376ZM174.012 236.544L170.234 237.858L171.535 241.598L175.288 240.335L174.012 236.544ZM171.276 230.008L167.665 231.728L167.681 231.762L167.698 231.797L171.276 230.008ZM167.476 224.384L164.466 227.018L164.511 227.07L164.558 227.12L167.476 224.384ZM162.156 220.584L160.515 224.232L160.547 224.246L160.58 224.261L162.156 220.584ZM138.596 227.88L135.134 225.876L135.129 225.886L135.123 225.895L138.596 227.88ZM134.796 281.232L130.856 281.922V281.922L134.796 281.232ZM138.292 291.72L134.79 293.652L134.83 293.725L134.873 293.796L138.292 291.72ZM144.828 298.408L142.732 301.815L142.76 301.832L142.789 301.849L144.828 298.408ZM168.844 295.368L165.859 292.706L165.854 292.711L168.844 295.368ZM173.86 271.504H177.86V267.504H173.86V271.504ZM153.34 271.504H149.34V275.504H153.34V271.504ZM153.34 258.736V254.736H149.34V258.736H153.34ZM189.364 258.736H193.364V254.736H189.364V258.736ZM189.364 313V317H193.364V313H189.364ZM173.86 313H169.86V317H173.86V313ZM173.86 298.408V294.408H172.796V298.408V302.408H173.86V298.408ZM172.796 298.408L169.119 296.832C168.301 298.741 167.296 300.617 166.098 302.46L169.452 304.64L172.806 306.82C174.242 304.61 175.467 302.331 176.473 299.984L172.796 298.408ZM169.452 304.64L166.07 302.504C165.114 304.017 163.858 305.408 162.261 306.668L164.74 309.808L167.219 312.948C169.472 311.168 171.358 309.113 172.834 306.776L169.452 304.64ZM164.74 309.808L162.179 306.735C160.785 307.897 159 308.895 156.744 309.676L158.052 313.456L159.36 317.236C162.374 316.193 165.047 314.759 167.301 312.881L164.74 309.808ZM158.052 313.456L156.744 309.676C154.616 310.413 152.033 310.824 148.932 310.824V314.824V318.824C152.722 318.824 156.219 318.323 159.36 317.236L158.052 313.456ZM148.932 314.824V310.824C139.285 310.824 132.293 306.845 127.447 298.652L124.004 300.688L120.561 302.724C126.862 313.379 136.488 318.824 148.932 318.824V314.824ZM124.004 300.688L127.447 298.652C122.39 290.102 119.644 277.596 119.644 260.712H115.644H111.644C111.644 278.281 114.471 292.426 120.561 302.724L124.004 300.688ZM115.644 260.712H119.644C119.644 243.049 122.787 230.183 128.543 221.595L125.22 219.368L121.897 217.141C114.885 227.603 111.644 242.3 111.644 260.712H115.644ZM125.22 219.368L128.543 221.595C134.064 213.357 142.486 209.08 154.556 209.08V205.08V201.08C140.28 201.08 129.144 206.329 121.897 217.141L125.22 219.368ZM154.556 205.08V209.08C159.369 209.08 163.391 209.742 166.701 210.961L168.084 207.208L169.467 203.455C165.075 201.837 160.079 201.08 154.556 201.08V205.08ZM168.084 207.208L166.733 210.973C170.274 212.244 173.156 213.927 175.459 215.974L178.116 212.984L180.773 209.994C177.604 207.177 173.798 205.009 169.435 203.443L168.084 207.208ZM178.116 212.984L175.522 216.029C177.886 218.043 179.869 220.459 181.47 223.305L184.956 221.344L188.442 219.383C186.395 215.744 183.818 212.586 180.71 209.939L178.116 212.984ZM184.956 221.344L181.497 223.353C183.169 226.232 184.52 229.304 185.548 232.575L189.364 231.376L193.18 230.177C191.979 226.355 190.391 222.738 188.415 219.335L184.956 221.344ZM189.364 231.376L188.088 227.585L172.736 232.753L174.012 236.544L175.288 240.335L190.64 235.167L189.364 231.376ZM174.012 236.544L177.79 235.23C176.928 232.751 175.95 230.412 174.854 228.219L171.276 230.008L167.698 231.797C168.628 233.657 169.475 235.676 170.234 237.858L174.012 236.544ZM171.276 230.008L174.887 228.288C173.708 225.81 172.213 223.588 170.394 221.648L167.476 224.384L164.558 227.12C165.779 228.422 166.818 229.95 167.665 231.728L171.276 230.008ZM167.476 224.384L170.486 221.75C168.645 219.645 166.368 218.037 163.732 216.907L162.156 220.584L160.58 224.261C162.2 224.955 163.47 225.88 164.466 227.018L167.476 224.384ZM162.156 220.584L163.797 216.936C161.117 215.73 158.039 215.216 154.708 215.216V219.216V223.216C157.254 223.216 159.142 223.614 160.515 224.232L162.156 220.584ZM154.708 219.216V215.216C146.07 215.216 139.282 218.711 135.134 225.876L138.596 227.88L142.058 229.884C144.598 225.497 148.551 223.216 154.708 223.216V219.216ZM138.596 227.88L135.123 225.895C131.406 232.399 129.732 240.875 129.732 250.984H133.732H137.732C137.732 241.637 139.3 234.71 142.069 229.865L138.596 227.88ZM133.732 250.984H129.732V267.856H133.732H137.732V250.984H133.732ZM133.732 267.856H129.732C129.732 272.911 130.1 277.604 130.856 281.922L134.796 281.232L138.736 280.542C138.073 276.753 137.732 272.529 137.732 267.856H133.732ZM134.796 281.232L130.856 281.922C131.625 286.316 132.913 290.25 134.79 293.652L138.292 291.72L141.794 289.788C140.429 287.312 139.386 284.255 138.736 280.542L134.796 281.232ZM138.292 291.72L134.873 293.796C136.9 297.135 139.518 299.837 142.732 301.815L144.828 298.408L146.924 295.001C144.869 293.736 143.129 291.98 141.711 289.644L138.292 291.72ZM144.828 298.408L142.789 301.849C146.26 303.906 150.291 304.84 154.708 304.84V300.84V296.84C151.424 296.84 148.868 296.152 146.867 294.967L144.828 298.408ZM154.708 300.84V304.84C161.706 304.84 167.639 302.744 171.834 298.025L168.844 295.368L165.854 292.711C163.564 295.288 160.073 296.84 154.708 296.84V300.84ZM168.844 295.368L171.829 298.03C175.924 293.439 177.86 287.681 177.86 281.08H173.86H169.86C169.86 286.031 168.452 289.798 165.859 292.706L168.844 295.368ZM173.86 281.08H177.86V271.504H173.86H169.86V281.08H173.86ZM173.86 271.504V267.504H153.34V271.504V275.504H173.86V271.504ZM153.34 271.504H157.34V258.736H153.34H149.34V271.504H153.34ZM153.34 258.736V262.736H189.364V258.736V254.736H153.34V258.736ZM189.364 258.736H185.364V313H189.364H193.364V258.736H189.364ZM189.364 313V309H173.86V313V317H189.364V313ZM173.86 313H177.86V298.408H173.86H169.86V313H173.86ZM223.353 313H219.353V317H223.353V313ZM223.353 206.904V202.904H219.353V206.904H223.353ZM289.777 206.904H293.777V202.904H289.777V206.904ZM289.777 221.192V225.192H293.777V221.192H289.777ZM240.377 221.192V217.192H236.377V221.192H240.377ZM240.377 252.048H236.377V256.048H240.377V252.048ZM287.953 252.048H291.953V248.048H287.953V252.048ZM287.953 266.336V270.336H291.953V266.336H287.953ZM240.377 266.336V262.336H236.377V266.336H240.377ZM240.377 298.712H236.377V302.712H240.377V298.712ZM289.777 298.712H293.777V294.712H289.777V298.712ZM289.777 313V317H293.777V313H289.777ZM223.353 313H227.353V206.904H223.353H219.353V313H223.353ZM223.353 206.904V210.904H289.777V206.904V202.904H223.353V206.904ZM289.777 206.904H285.777V221.192H289.777H293.777V206.904H289.777ZM289.777 221.192V217.192H240.377V221.192V225.192H289.777V221.192ZM240.377 221.192H236.377V252.048H240.377H244.377V221.192H240.377ZM240.377 252.048V256.048H287.953V252.048V248.048H240.377V252.048ZM287.953 252.048H283.953V266.336H287.953H291.953V252.048H287.953ZM287.953 266.336V262.336H240.377V266.336V270.336H287.953V266.336ZM240.377 266.336H236.377V298.712H240.377H244.377V266.336H240.377ZM240.377 298.712V302.712H289.777V298.712V294.712H240.377V298.712ZM289.777 298.712H285.777V313H289.777H293.777V298.712H289.777ZM289.777 313V309H223.353V313V317H289.777V313ZM325.133 313H321.133V317H325.133V313ZM325.133 206.904V202.904H321.133V206.904H325.133ZM393.381 206.904H397.381V202.904H393.381V206.904ZM393.381 221.192V225.192H397.381V221.192H393.381ZM342.157 221.192V217.192H338.157V221.192H342.157ZM342.157 252.048H338.157V256.048H342.157V252.048ZM388.669 252.048H392.669V248.048H388.669V252.048ZM388.669 266.336V270.336H392.669V266.336H388.669ZM342.157 266.336V262.336H338.157V266.336H342.157ZM342.157 313V317H346.157V313H342.157ZM325.133 313H329.133V206.904H325.133H321.133V313H325.133ZM325.133 206.904V210.904H393.381V206.904V202.904H325.133V206.904ZM393.381 206.904H389.381V221.192H393.381H397.381V206.904H393.381ZM393.381 221.192V217.192H342.157V221.192V225.192H393.381V221.192ZM342.157 221.192H338.157V252.048H342.157H346.157V221.192H342.157ZM342.157 252.048V256.048H388.669V252.048V248.048H342.157V252.048ZM388.669 252.048H384.669V266.336H388.669H392.669V252.048H388.669ZM388.669 266.336V262.336H342.157V266.336V270.336H388.669V266.336ZM342.157 266.336H338.157V313H342.157H346.157V266.336H342.157ZM342.157 313V309H325.133V313V317H342.157V313Z" fill="#998468" mask="url(#path-4-outside-1_25_81)"/>
</svg>
