<svg width="512" height="512" viewBox="0 0 512 512" fill="none" xmlns="http://www.w3.org/2000/svg">
    <style>
        #text {
            fill: black;
        }

        #text-outline {
            fill: white;
        }

        @media (prefers-color-scheme: dark) {
            #text {
                fill: white;
            }

            #text-outline {
                fill: black;
            }
        }
    </style>

    <path
        d="M249.591 387.088C242.427 385.763 234.728 382.079 171.473 349.7C93.9231 310 91.9388 308.564 100.25 298.161C102.321 295.571 131.938 279.258 134.574 279.258C135.164 279.258 158.451 290.968 186.318 305.286C261.263 343.781 250.433 343.815 325.973 304.829L377.452 278.262L392.506 286.019C414.269 297.238 418.728 303.247 411.29 311.346C408.798 314.065 277.007 382.767 269.4 385.319C264.919 386.819 253.607 387.832 249.591 387.088Z"
        fill="#868B85" />
    <path
        d="M246.721 297.721C241.615 296.614 234.915 293.336 170.322 260.299C93.1416 220.825 90.9923 219.235 100.532 208.67C105.482 203.191 133.631 189.596 136.979 191.075C138.573 191.78 161.59 203.465 188.129 217.043C261.189 254.426 250.664 254.525 325.586 215.825C353.163 201.58 376.306 189.925 377.014 189.925C379.497 189.925 408.407 204.794 411.125 207.469C421.798 217.97 419.861 219.436 341.956 259.799C265.913 299.204 261.558 300.935 246.721 297.721Z"
        fill="#998468" />
    <path
        d="M242.479 207.559C233.022 204.234 104.119 137.502 101.101 134.369C90.7452 123.607 92.9032 121.928 164.582 85.0182C250.182 40.9331 241.619 44.8907 252.726 44.2881C266.895 43.5145 267.299 43.6855 339.998 80.8939C437.382 130.745 437.291 121.616 340.927 171.342C261.771 212.188 258.779 213.286 242.479 207.559Z"
        fill="#63805E" />
    <mask id="path-4-outside-1_25_81" maskUnits="userSpaceOnUse" x="172.5" y="412.91" width="165" height="73"
        fill="black">
        <rect fill="white" x="172.5" y="412.91" width="165" height="73" />
        <path
            d="M210.78 473.694H210.108C209.532 475.038 208.828 476.35 207.996 477.63C207.228 478.846 206.236 479.934 205.02 480.894C203.868 481.854 202.46 482.622 200.796 483.198C199.132 483.774 197.212 484.062 195.036 484.062C188.06 484.062 182.812 481.086 179.292 475.134C175.772 469.182 174.012 460.766 174.012 449.886C174.012 438.494 176.028 429.79 180.06 423.774C184.092 417.758 190.268 414.75 198.588 414.75C201.852 414.75 204.7 415.198 207.132 416.094C209.628 416.99 211.74 418.206 213.468 419.742C215.196 421.214 216.636 422.974 217.788 425.022C218.94 427.006 219.868 429.118 220.572 431.358L210.876 434.622C210.364 433.15 209.788 431.774 209.148 430.494C208.508 429.15 207.708 427.966 206.748 426.942C205.852 425.918 204.732 425.118 203.388 424.542C202.108 423.966 200.54 423.678 198.684 423.678C194.012 423.678 190.62 425.502 188.508 429.15C186.46 432.734 185.436 437.598 185.436 443.742V454.398C185.436 457.47 185.66 460.286 186.108 462.846C186.556 465.406 187.292 467.614 188.316 469.47C189.404 471.262 190.78 472.67 192.444 473.694C194.172 474.718 196.252 475.23 198.684 475.23C202.588 475.23 205.564 474.078 207.612 471.774C209.724 469.406 210.78 466.398 210.78 462.75V456.702H197.82V448.638H220.572V482.91H210.78V473.694ZM235.319 482.91V415.902H277.271V424.926H246.071V444.414H276.119V453.438H246.071V473.886H277.271V482.91H235.319ZM292.881 482.91V415.902H335.985V424.926H303.633V444.414H333.009V453.438H303.633V482.91H292.881Z" />
    </mask>

    <path id="text"
        d="M210.78 473.694H210.108C209.532 475.038 208.828 476.35 207.996 477.63C207.228 478.846 206.236 479.934 205.02 480.894C203.868 481.854 202.46 482.622 200.796 483.198C199.132 483.774 197.212 484.062 195.036 484.062C188.06 484.062 182.812 481.086 179.292 475.134C175.772 469.182 174.012 460.766 174.012 449.886C174.012 438.494 176.028 429.79 180.06 423.774C184.092 417.758 190.268 414.75 198.588 414.75C201.852 414.75 204.7 415.198 207.132 416.094C209.628 416.99 211.74 418.206 213.468 419.742C215.196 421.214 216.636 422.974 217.788 425.022C218.94 427.006 219.868 429.118 220.572 431.358L210.876 434.622C210.364 433.15 209.788 431.774 209.148 430.494C208.508 429.15 207.708 427.966 206.748 426.942C205.852 425.918 204.732 425.118 203.388 424.542C202.108 423.966 200.54 423.678 198.684 423.678C194.012 423.678 190.62 425.502 188.508 429.15C186.46 432.734 185.436 437.598 185.436 443.742V454.398C185.436 457.47 185.66 460.286 186.108 462.846C186.556 465.406 187.292 467.614 188.316 469.47C189.404 471.262 190.78 472.67 192.444 473.694C194.172 474.718 196.252 475.23 198.684 475.23C202.588 475.23 205.564 474.078 207.612 471.774C209.724 469.406 210.78 466.398 210.78 462.75V456.702H197.82V448.638H220.572V482.91H210.78V473.694ZM235.319 482.91V415.902H277.271V424.926H246.071V444.414H276.119V453.438H246.071V473.886H277.271V482.91H235.319ZM292.881 482.91V415.902H335.985V424.926H303.633V444.414H333.009V453.438H303.633V482.91H292.881Z" />

    <path id="text-outline"
        d="M210.78 473.694H211.78V472.694H210.78V473.694ZM210.108 473.694V472.694H209.449L209.189 473.3L210.108 473.694ZM207.996 477.63L207.157 477.085L207.151 477.096L207.996 477.63ZM205.02 480.894L204.4 480.109L204.39 480.117L204.38 480.126L205.02 480.894ZM200.796 483.198L200.469 482.253L200.469 482.253L200.796 483.198ZM179.292 475.134L178.431 475.643L179.292 475.134ZM180.06 423.774L179.229 423.217L179.229 423.217L180.06 423.774ZM207.132 416.094L206.786 417.032L206.794 417.035L207.132 416.094ZM213.468 419.742L212.804 420.489L212.812 420.496L212.82 420.503L213.468 419.742ZM217.788 425.022L216.916 425.512L216.923 425.524L217.788 425.022ZM220.572 431.358L220.891 432.306L221.82 431.993L221.526 431.058L220.572 431.358ZM210.876 434.622L209.932 434.95L210.257 435.885L211.195 435.57L210.876 434.622ZM209.148 430.494L208.245 430.924L208.249 430.932L208.254 430.941L209.148 430.494ZM206.748 426.942L205.995 427.6L206.007 427.613L206.018 427.626L206.748 426.942ZM203.388 424.542L202.978 425.454L202.986 425.457L202.994 425.461L203.388 424.542ZM188.508 429.15L187.643 428.649L187.64 428.654L188.508 429.15ZM186.108 462.846L185.123 463.018L185.123 463.018L186.108 462.846ZM188.316 469.47L187.44 469.953L187.45 469.971L187.461 469.989L188.316 469.47ZM192.444 473.694L191.92 474.545L191.927 474.55L191.934 474.554L192.444 473.694ZM207.612 471.774L206.866 471.108L206.865 471.109L207.612 471.774ZM210.78 456.702H211.78V455.702H210.78V456.702ZM197.82 456.702H196.82V457.702H197.82V456.702ZM197.82 448.638V447.638H196.82V448.638H197.82ZM220.572 448.638H221.572V447.638H220.572V448.638ZM220.572 482.91V483.91H221.572V482.91H220.572ZM210.78 482.91H209.78V483.91H210.78V482.91ZM210.78 473.694V472.694H210.108V473.694V474.694H210.78V473.694ZM210.108 473.694L209.189 473.3C208.636 474.589 207.96 475.851 207.158 477.085L207.996 477.63L208.834 478.175C209.696 476.849 210.428 475.487 211.027 474.088L210.108 473.694ZM207.996 477.63L207.151 477.096C206.448 478.209 205.534 479.214 204.4 480.109L205.02 480.894L205.64 481.679C206.938 480.654 208.008 479.483 208.841 478.164L207.996 477.63ZM205.02 480.894L204.38 480.126C203.335 480.996 202.038 481.71 200.469 482.253L200.796 483.198L201.123 484.143C202.882 483.534 204.401 482.712 205.66 481.662L205.02 480.894ZM200.796 483.198L200.469 482.253C198.932 482.785 197.126 483.062 195.036 483.062V484.062V485.062C197.298 485.062 199.332 484.763 201.123 484.143L200.796 483.198ZM195.036 484.062V483.062C188.41 483.062 183.491 480.269 180.153 474.625L179.292 475.134L178.431 475.643C182.133 481.902 187.71 485.062 195.036 485.062V484.062ZM179.292 475.134L180.153 474.625C176.762 468.891 175.012 460.68 175.012 449.886H174.012H173.012C173.012 460.851 174.782 469.472 178.431 475.643L179.292 475.134ZM174.012 449.886H175.012C175.012 438.587 177.016 430.112 180.891 424.331L180.06 423.774L179.229 423.217C175.04 429.467 173.012 438.4 173.012 449.886H174.012ZM180.06 423.774L180.891 424.331C184.707 418.636 190.544 415.75 198.588 415.75V414.75V413.75C189.992 413.75 183.477 416.879 179.229 423.217L180.06 423.774ZM198.588 414.75V415.75C201.763 415.75 204.49 416.186 206.786 417.032L207.132 416.094L207.478 415.155C204.91 414.21 201.941 413.75 198.588 413.75V414.75ZM207.132 416.094L206.794 417.035C209.187 417.894 211.184 419.05 212.804 420.489L213.468 419.742L214.132 418.994C212.296 417.362 210.069 416.085 207.47 415.153L207.132 416.094ZM213.468 419.742L212.82 420.503C214.455 421.896 215.82 423.563 216.916 425.512L217.788 425.022L218.66 424.532C217.452 422.384 215.937 420.532 214.116 418.981L213.468 419.742ZM217.788 425.022L216.923 425.524C218.037 427.443 218.936 429.486 219.618 431.658L220.572 431.358L221.526 431.058C220.8 428.749 219.843 426.569 218.653 424.52L217.788 425.022ZM220.572 431.358L220.253 430.41L210.557 433.674L210.876 434.622L211.195 435.57L220.891 432.306L220.572 431.358ZM210.876 434.622L211.82 434.293C211.296 432.784 210.703 431.368 210.042 430.047L209.148 430.494L208.254 430.941C208.873 432.179 209.432 433.515 209.932 434.95L210.876 434.622ZM209.148 430.494L210.051 430.064C209.369 428.632 208.512 427.362 207.478 426.258L206.748 426.942L206.018 427.626C206.904 428.57 207.647 429.667 208.245 430.924L209.148 430.494ZM206.748 426.942L207.501 426.283C206.499 425.138 205.253 424.253 203.782 423.623L203.388 424.542L202.994 425.461C204.211 425.982 205.205 426.697 205.995 427.6L206.748 426.942ZM203.388 424.542L203.798 423.63C202.355 422.98 200.638 422.678 198.684 422.678V423.678V424.678C200.442 424.678 201.861 424.951 202.978 425.454L203.388 424.542ZM198.684 423.678V422.678C193.702 422.678 189.956 424.653 187.643 428.649L188.508 429.15L189.373 429.651C191.284 426.35 194.322 424.678 198.684 424.678V423.678ZM188.508 429.15L187.64 428.654C185.473 432.445 184.436 437.503 184.436 443.742H185.436H186.436C186.436 437.693 187.447 433.023 189.376 429.646L188.508 429.15ZM185.436 443.742H184.436V454.398H185.436H186.436V443.742H185.436ZM185.436 454.398H184.436C184.436 457.517 184.663 460.392 185.123 463.018L186.108 462.846L187.093 462.673C186.657 460.179 186.436 457.422 186.436 454.398H185.436ZM186.108 462.846L185.123 463.018C185.586 465.663 186.353 467.981 187.44 469.953L188.316 469.47L189.192 468.987C188.231 467.247 187.526 465.148 187.093 462.673L186.108 462.846ZM188.316 469.47L187.461 469.989C188.625 471.906 190.111 473.432 191.92 474.545L192.444 473.694L192.968 472.842C191.449 471.907 190.183 470.617 189.171 468.951L188.316 469.47ZM192.444 473.694L191.934 474.554C193.846 475.687 196.11 476.23 198.684 476.23V475.23V474.23C196.394 474.23 194.498 473.749 192.954 472.833L192.444 473.694ZM198.684 475.23V476.23C202.792 476.23 206.073 475.01 208.359 472.438L207.612 471.774L206.865 471.109C205.055 473.146 202.384 474.23 198.684 474.23V475.23ZM207.612 471.774L208.358 472.439C210.658 469.861 211.78 466.604 211.78 462.75H210.78H209.78C209.78 466.191 208.79 468.951 206.866 471.108L207.612 471.774ZM210.78 462.75H211.78V456.702H210.78H209.78V462.75H210.78ZM210.78 456.702V455.702H197.82V456.702V457.702H210.78V456.702ZM197.82 456.702H198.82V448.638H197.82H196.82V456.702H197.82ZM197.82 448.638V449.638H220.572V448.638V447.638H197.82V448.638ZM220.572 448.638H219.572V482.91H220.572H221.572V448.638H220.572ZM220.572 482.91V481.91H210.78V482.91V483.91H220.572V482.91ZM210.78 482.91H211.78V473.694H210.78H209.78V482.91H210.78ZM235.319 482.91H234.319V483.91H235.319V482.91ZM235.319 415.902V414.902H234.319V415.902H235.319ZM277.271 415.902H278.271V414.902H277.271V415.902ZM277.271 424.926V425.926H278.271V424.926H277.271ZM246.071 424.926V423.926H245.071V424.926H246.071ZM246.071 444.414H245.071V445.414H246.071V444.414ZM276.119 444.414H277.119V443.414H276.119V444.414ZM276.119 453.438V454.438H277.119V453.438H276.119ZM246.071 453.438V452.438H245.071V453.438H246.071ZM246.071 473.886H245.071V474.886H246.071V473.886ZM277.271 473.886H278.271V472.886H277.271V473.886ZM277.271 482.91V483.91H278.271V482.91H277.271ZM235.319 482.91H236.319V415.902H235.319H234.319V482.91H235.319ZM235.319 415.902V416.902H277.271V415.902V414.902H235.319V415.902ZM277.271 415.902H276.271V424.926H277.271H278.271V415.902H277.271ZM277.271 424.926V423.926H246.071V424.926V425.926H277.271V424.926ZM246.071 424.926H245.071V444.414H246.071H247.071V424.926H246.071ZM246.071 444.414V445.414H276.119V444.414V443.414H246.071V444.414ZM276.119 444.414H275.119V453.438H276.119H277.119V444.414H276.119ZM276.119 453.438V452.438H246.071V453.438V454.438H276.119V453.438ZM246.071 453.438H245.071V473.886H246.071H247.071V453.438H246.071ZM246.071 473.886V474.886H277.271V473.886V472.886H246.071V473.886ZM277.271 473.886H276.271V482.91H277.271H278.271V473.886H277.271ZM277.271 482.91V481.91H235.319V482.91V483.91H277.271V482.91ZM292.881 482.91H291.881V483.91H292.881V482.91ZM292.881 415.902V414.902H291.881V415.902H292.881ZM335.985 415.902H336.985V414.902H335.985V415.902ZM335.985 424.926V425.926H336.985V424.926H335.985ZM303.633 424.926V423.926H302.633V424.926H303.633ZM303.633 444.414H302.633V445.414H303.633V444.414ZM333.009 444.414H334.009V443.414H333.009V444.414ZM333.009 453.438V454.438H334.009V453.438H333.009ZM303.633 453.438V452.438H302.633V453.438H303.633ZM303.633 482.91V483.91H304.633V482.91H303.633ZM292.881 482.91H293.881V415.902H292.881H291.881V482.91H292.881ZM292.881 415.902V416.902H335.985V415.902V414.902H292.881V415.902ZM335.985 415.902H334.985V424.926H335.985H336.985V415.902H335.985ZM335.985 424.926V423.926H303.633V424.926V425.926H335.985V424.926ZM303.633 424.926H302.633V444.414H303.633H304.633V424.926H303.633ZM303.633 444.414V445.414H333.009V444.414V443.414H303.633V444.414ZM333.009 444.414H332.009V453.438H333.009H334.009V444.414H333.009ZM333.009 453.438V452.438H303.633V453.438V454.438H333.009V453.438ZM303.633 453.438H302.633V482.91H303.633H304.633V453.438H303.633ZM303.633 482.91V481.91H292.881V482.91V483.91H303.633V482.91Z"
        mask="url(#path-4-outside-1_25_81)" />
</svg>